<svg width="51" height="50" viewBox="0 0 51 50" fill="none" xmlns="http://www.w3.org/2000/svg">
<path fill-rule="evenodd" clip-rule="evenodd" d="M25.4977 0C11.4166 0 0 11.4761 0 25.6335C0 36.9585 7.30584 46.5651 17.4388 49.9561C18.7147 50.1906 19.1796 49.3991 19.1796 48.7193C19.1796 48.1119 19.1577 46.499 19.1452 44.3605C12.0522 45.9089 10.5557 40.9239 10.5557 40.9239C9.39568 37.9624 7.72381 37.174 7.72381 37.174C5.40855 35.5847 7.89914 35.6162 7.89914 35.6162C10.4586 35.7972 11.8049 38.2582 11.8049 38.2582C14.0794 42.1748 17.7738 41.0434 19.2266 40.3873C19.4582 38.7319 20.1157 37.602 20.8452 36.9616C15.1831 36.3149 9.22975 34.115 9.22975 24.2928C9.22975 21.495 10.2238 19.207 11.855 17.4147C11.592 16.7664 10.7169 14.1606 12.1039 10.631C12.1039 10.631 14.2454 9.94182 19.117 13.2589C21.1505 12.6893 23.3327 12.406 25.5008 12.3966C27.6658 12.406 29.848 12.6893 31.8846 13.2589C36.7531 9.94182 38.8899 10.631 38.8899 10.631C40.2815 14.1606 39.4065 16.7664 39.1435 17.4147C40.7778 19.207 41.7656 21.495 41.7656 24.2928C41.7656 34.1402 35.8029 36.307 30.1219 36.9411C31.0377 37.7326 31.8533 39.2968 31.8533 41.6886C31.8533 45.1143 31.822 47.879 31.822 48.7193C31.822 49.4054 32.2806 50.2032 33.5752 49.953C43.7004 46.5557 51 36.9553 51 25.6335C51 11.4761 39.5818 0 25.4977 0Z" fill="white"/>
</svg>
