<svg width="360" height="117" viewBox="0 0 360 117" fill="none" xmlns="http://www.w3.org/2000/svg">
<path fill-rule="evenodd" clip-rule="evenodd" d="M189 54.0016C189 44.6893 197.643 36 207.035 36C216.427 36 225.001 44.6893 225 54.0016C224.999 66.7527 213.966 93 207.035 93C200.104 93 189 66.759 189 54.0016ZM206.94 45.3333C211.766 45.3333 215.683 49.2174 215.683 54.0016C215.683 58.7858 211.766 62.6699 206.94 62.6699C202.115 62.6699 198.198 58.7858 198.198 54.0016C198.198 49.2174 202.115 45.3333 206.94 45.3333Z" fill="#307FE2"/>
<path d="M59.176 93H75.496L45.448 25.8H30.088L0.135986 93H16.072L22.024 78.6H53.224L59.176 93ZM27.016 66.792L37.672 41.064L48.328 66.792H27.016ZM117.531 41.352V66.888C117.531 76.392 112.539 80.808 105.627 80.808C99.0025 80.808 95.1625 76.968 95.1625 68.328V41.352H80.1865V70.536C80.1865 86.472 89.3065 93.768 102.267 93.768C108.603 93.768 114.363 91.368 118.299 86.856V93H132.507V41.352H117.531ZM175.661 79.944C174.029 81.192 171.821 81.864 169.613 81.864C165.581 81.864 163.181 79.464 163.181 75.048V54.024H176.045V42.504H163.181V29.928H148.205V42.504H140.237V54.024H148.205V75.24C148.205 87.528 155.309 93.768 167.501 93.768C172.109 93.768 176.621 92.712 179.693 90.504L175.661 79.944ZM265.707 32.808C268.011 32.808 270.123 33.48 271.755 34.632L275.691 23.784C272.907 21.864 268.491 21 264.267 21C251.403 21 244.299 28.584 244.299 40.2V42.504H236.331V54.024H244.299V93H259.275V54.024H272.139V42.504H258.891V40.296C258.891 35.208 261.291 32.808 265.707 32.808ZM279.627 21.768V93H294.603V21.768H279.627ZM345.432 41.352L330.84 76.392L316.344 41.352H300.888L323.256 93.384L323.064 93.864C321.048 98.472 318.744 100.296 314.616 100.296C311.64 100.296 308.472 99.048 306.168 97.032L300.696 107.688C304.056 110.664 309.816 112.392 315.096 112.392C324.408 112.392 331.512 108.648 336.504 96.168L359.832 41.352H345.432Z" fill="white"/>
</svg>
