<svg width="1093" height="386" viewBox="0 0 1093 386" fill="none" xmlns="http://www.w3.org/2000/svg">
<path d="M58 268.3C58 268.3 62.6119 250.602 70.9279 249.044C146.063 234.965 523.57 162.486 534.042 125.534C534.096 125.286 534.15 125.035 534.205 124.784C538.289 114.689 541 109.158 546.478 99.7466C552.86 88.7824 559.315 77 572.007 77C584.699 77 592.299 88.2915 598.517 99.7466C603.712 109.317 606.408 114.816 610.79 124.784C610.848 124.993 610.906 125.2 610.963 125.407C621.873 157.043 970.921 232.51 1046.25 248.455C1055.38 250.387 1060.49 266.664 1060.49 266.664V282.701C1060.49 282.701 1055.34 275.453 1046.25 275.1C992.584 273.015 801.558 265.985 722.069 268.3C673.672 269.71 598.517 278.61 598.517 278.61L590.008 295.629H554.988L546.478 278.61C546.478 278.61 471.324 269.71 422.927 268.3C342.123 265.947 126.028 273.25 70.9279 275.199C62.6448 275.492 58 287.938 58 287.938V268.3Z" fill="#DADADA"/>
<path d="M562.04 274.197H584.623C584.623 274.197 598.791 236.226 597.535 188.605C596.452 147.531 591.401 128.395 587.226 118.571C583.051 108.747 577.407 98.1347 571.531 98.2793C566.934 98.3924 560.728 108.258 556.952 118.571C554.497 125.275 546.235 160.295 547.46 188.605C549.915 245.303 562.04 274.197 562.04 274.197Z" fill="white"/>
<rect x="403" y="135" width="96" height="5" rx="2.5" fill="#C4C4C4"/>
<rect x="644" y="135" width="96" height="5" rx="2.5" fill="#C4C4C4"/>
<rect x="525" y="303" width="96" height="5" rx="2.5" fill="#C4C4C4"/>
<path d="M38.8152 351.8L30.3192 377H27.5112L20.1312 355.508L12.7152 377H9.94323L1.44723 351.8H4.18323L11.4552 373.472L18.9792 351.8H21.4632L28.8792 373.58L36.2592 351.8H38.8152ZM43.0542 358.064H45.6102V377H43.0542V358.064ZM44.3502 353.924C43.8222 353.924 43.3782 353.744 43.0182 353.384C42.6582 353.024 42.4782 352.592 42.4782 352.088C42.4782 351.608 42.6582 351.188 43.0182 350.828C43.3782 350.468 43.8222 350.288 44.3502 350.288C44.8782 350.288 45.3222 350.468 45.6822 350.828C46.0422 351.164 46.2222 351.572 46.2222 352.052C46.2222 352.58 46.0422 353.024 45.6822 353.384C45.3222 353.744 44.8782 353.924 44.3502 353.924ZM62.3702 357.92C64.7462 357.92 66.6302 358.616 68.0222 360.008C69.4382 361.376 70.1462 363.38 70.1462 366.02V377H67.5902V366.272C67.5902 364.304 67.0982 362.804 66.1142 361.772C65.1302 360.74 63.7262 360.224 61.9022 360.224C59.8622 360.224 58.2422 360.836 57.0422 362.06C55.8662 363.26 55.2782 364.928 55.2782 367.064V377H52.7222V358.064H55.1702V361.556C55.8662 360.404 56.8262 359.516 58.0502 358.892C59.2982 358.244 60.7382 357.92 62.3702 357.92ZM94.6878 358.064V374.696C94.6878 377.912 93.8958 380.288 92.3118 381.824C90.7518 383.384 88.3878 384.164 85.2198 384.164C83.4678 384.164 81.7998 383.9 80.2158 383.372C78.6558 382.868 77.3838 382.16 76.3998 381.248L77.6958 379.304C78.6078 380.12 79.7118 380.756 81.0078 381.212C82.3278 381.668 83.7078 381.896 85.1478 381.896C87.5478 381.896 89.3118 381.332 90.4398 380.204C91.5678 379.1 92.1318 377.372 92.1318 375.02V372.608C91.3398 373.808 90.2958 374.72 88.9998 375.344C87.7278 375.968 86.3118 376.28 84.7518 376.28C82.9758 376.28 81.3558 375.896 79.8918 375.128C78.4518 374.336 77.3118 373.244 76.4718 371.852C75.6558 370.436 75.2478 368.84 75.2478 367.064C75.2478 365.288 75.6558 363.704 76.4718 362.312C77.3118 360.92 78.4518 359.84 79.8918 359.072C81.3318 358.304 82.9518 357.92 84.7518 357.92C86.3598 357.92 87.8118 358.244 89.1078 358.892C90.4038 359.54 91.4478 360.476 92.2398 361.7V358.064H94.6878ZM85.0038 374.012C86.3718 374.012 87.6078 373.724 88.7118 373.148C89.8158 372.548 90.6678 371.72 91.2678 370.664C91.8918 369.608 92.2038 368.408 92.2038 367.064C92.2038 365.72 91.8918 364.532 91.2678 363.5C90.6678 362.444 89.8158 361.628 88.7118 361.052C87.6318 360.452 86.3958 360.152 85.0038 360.152C83.6358 360.152 82.3998 360.44 81.2958 361.016C80.2158 361.592 79.3638 362.408 78.7398 363.464C78.1398 364.52 77.8398 365.72 77.8398 367.064C77.8398 368.408 78.1398 369.608 78.7398 370.664C79.3638 371.72 80.2158 372.548 81.2958 373.148C82.3998 373.724 83.6358 374.012 85.0038 374.012ZM106.911 377.18C105.375 377.18 103.899 376.964 102.483 376.532C101.091 376.076 99.9995 375.512 99.2075 374.84L100.359 372.824C101.151 373.448 102.147 373.964 103.347 374.372C104.547 374.756 105.795 374.948 107.091 374.948C108.819 374.948 110.091 374.684 110.907 374.156C111.747 373.604 112.167 372.836 112.167 371.852C112.167 371.156 111.939 370.616 111.483 370.232C111.027 369.824 110.451 369.524 109.755 369.332C109.059 369.116 108.135 368.912 106.983 368.72C105.447 368.432 104.211 368.144 103.275 367.856C102.339 367.544 101.535 367.028 100.863 366.308C100.215 365.588 99.8915 364.592 99.8915 363.32C99.8915 361.736 100.551 360.44 101.871 359.432C103.191 358.424 105.027 357.92 107.379 357.92C108.603 357.92 109.827 358.088 111.051 358.424C112.275 358.736 113.283 359.156 114.075 359.684L112.959 361.736C111.399 360.656 109.539 360.116 107.379 360.116C105.747 360.116 104.511 360.404 103.671 360.98C102.855 361.556 102.447 362.312 102.447 363.248C102.447 363.968 102.675 364.544 103.131 364.976C103.611 365.408 104.199 365.732 104.895 365.948C105.591 366.14 106.551 366.344 107.775 366.56C109.287 366.848 110.499 367.136 111.411 367.424C112.323 367.712 113.103 368.204 113.751 368.9C114.399 369.596 114.723 370.556 114.723 371.78C114.723 373.436 114.027 374.756 112.635 375.74C111.267 376.7 109.359 377.18 106.911 377.18Z" fill="#FFD600"/>
<path d="M418.517 377.216C416.021 377.216 413.765 376.664 411.749 375.56C409.757 374.456 408.185 372.932 407.033 370.988C405.905 369.02 405.341 366.824 405.341 364.4C405.341 361.976 405.905 359.792 407.033 357.848C408.185 355.88 409.769 354.344 411.785 353.24C413.801 352.136 416.057 351.584 418.553 351.584C420.425 351.584 422.153 351.896 423.737 352.52C425.321 353.144 426.665 354.056 427.769 355.256L426.077 356.948C424.109 354.956 421.625 353.96 418.625 353.96C416.633 353.96 414.821 354.416 413.189 355.328C411.557 356.24 410.273 357.488 409.337 359.072C408.425 360.656 407.969 362.432 407.969 364.4C407.969 366.368 408.425 368.144 409.337 369.728C410.273 371.312 411.557 372.56 413.189 373.472C414.821 374.384 416.633 374.84 418.625 374.84C421.649 374.84 424.133 373.832 426.077 371.816L427.769 373.508C426.665 374.708 425.309 375.632 423.701 376.28C422.117 376.904 420.389 377.216 418.517 377.216ZM439.251 357.92C441.723 357.92 443.619 358.544 444.939 359.792C446.259 361.016 446.919 362.84 446.919 365.264V377H444.471V374.048C443.895 375.032 443.043 375.8 441.915 376.352C440.811 376.904 439.491 377.18 437.955 377.18C435.843 377.18 434.163 376.676 432.915 375.668C431.667 374.66 431.043 373.328 431.043 371.672C431.043 370.064 431.619 368.768 432.771 367.784C433.947 366.8 435.807 366.308 438.351 366.308H444.363V365.156C444.363 363.524 443.907 362.288 442.995 361.448C442.083 360.584 440.751 360.152 438.999 360.152C437.799 360.152 436.647 360.356 435.543 360.764C434.439 361.148 433.491 361.688 432.699 362.384L431.547 360.476C432.507 359.66 433.659 359.036 435.003 358.604C436.347 358.148 437.763 357.92 439.251 357.92ZM438.351 375.164C439.791 375.164 441.027 374.84 442.059 374.192C443.091 373.52 443.859 372.56 444.363 371.312V368.216H438.423C435.183 368.216 433.562 369.344 433.562 371.6C433.562 372.704 433.983 373.58 434.823 374.228C435.663 374.852 436.839 375.164 438.351 375.164ZM456.309 361.772C456.909 360.5 457.797 359.54 458.973 358.892C460.173 358.244 461.649 357.92 463.401 357.92V360.404L462.789 360.368C460.797 360.368 459.237 360.98 458.109 362.204C456.981 363.428 456.417 365.144 456.417 367.352V377H453.861V358.064H456.309V361.772ZM485.385 358.064V374.696C485.385 377.912 484.593 380.288 483.009 381.824C481.449 383.384 479.085 384.164 475.917 384.164C474.165 384.164 472.497 383.9 470.913 383.372C469.353 382.868 468.081 382.16 467.097 381.248L468.393 379.304C469.305 380.12 470.409 380.756 471.705 381.212C473.025 381.668 474.405 381.896 475.845 381.896C478.245 381.896 480.009 381.332 481.137 380.204C482.265 379.1 482.829 377.372 482.829 375.02V372.608C482.037 373.808 480.993 374.72 479.697 375.344C478.425 375.968 477.009 376.28 475.449 376.28C473.673 376.28 472.053 375.896 470.589 375.128C469.149 374.336 468.009 373.244 467.169 371.852C466.353 370.436 465.945 368.84 465.945 367.064C465.945 365.288 466.353 363.704 467.169 362.312C468.009 360.92 469.149 359.84 470.589 359.072C472.029 358.304 473.649 357.92 475.449 357.92C477.057 357.92 478.509 358.244 479.805 358.892C481.101 359.54 482.145 360.476 482.937 361.7V358.064H485.385ZM475.701 374.012C477.069 374.012 478.305 373.724 479.409 373.148C480.513 372.548 481.365 371.72 481.965 370.664C482.589 369.608 482.901 368.408 482.901 367.064C482.901 365.72 482.589 364.532 481.965 363.5C481.365 362.444 480.513 361.628 479.409 361.052C478.329 360.452 477.093 360.152 475.701 360.152C474.333 360.152 473.097 360.44 471.993 361.016C470.913 361.592 470.061 362.408 469.437 363.464C468.837 364.52 468.537 365.72 468.537 367.064C468.537 368.408 468.837 369.608 469.437 370.664C470.061 371.72 470.913 372.548 471.993 373.148C473.097 373.724 474.333 374.012 475.701 374.012ZM500.273 377.18C498.449 377.18 496.805 376.772 495.341 375.956C493.877 375.116 492.725 373.964 491.885 372.5C491.045 371.036 490.625 369.38 490.625 367.532C490.625 365.684 491.045 364.028 491.885 362.564C492.725 361.1 493.877 359.96 495.341 359.144C496.805 358.328 498.449 357.92 500.273 357.92C502.097 357.92 503.741 358.328 505.205 359.144C506.669 359.96 507.809 361.1 508.625 362.564C509.465 364.028 509.885 365.684 509.885 367.532C509.885 369.38 509.465 371.036 508.625 372.5C507.809 373.964 506.669 375.116 505.205 375.956C503.741 376.772 502.097 377.18 500.273 377.18ZM500.273 374.912C501.617 374.912 502.817 374.612 503.873 374.012C504.953 373.388 505.793 372.512 506.393 371.384C506.993 370.256 507.293 368.972 507.293 367.532C507.293 366.092 506.993 364.808 506.393 363.68C505.793 362.552 504.953 361.688 503.873 361.088C502.817 360.464 501.617 360.152 500.273 360.152C498.929 360.152 497.717 360.464 496.637 361.088C495.581 361.688 494.741 362.552 494.117 363.68C493.517 364.808 493.217 366.092 493.217 367.532C493.217 368.972 493.517 370.256 494.117 371.384C494.741 372.512 495.581 373.388 496.637 374.012C497.717 374.612 498.929 374.912 500.273 374.912ZM531.941 346.688H534.281L522.401 380.6H520.061L531.941 346.688ZM564.365 374.696V377H546.545V351.8H563.825V354.104H549.209V363.068H562.241V365.336H549.209V374.696H564.365ZM570.087 350.288H572.643V377H570.087V350.288ZM596.243 368.324H580.403C580.547 370.292 581.303 371.888 582.671 373.112C584.039 374.312 585.767 374.912 587.855 374.912C589.031 374.912 590.111 374.708 591.095 374.3C592.079 373.868 592.931 373.244 593.651 372.428L595.091 374.084C594.251 375.092 593.195 375.86 591.923 376.388C590.675 376.916 589.295 377.18 587.783 377.18C585.839 377.18 584.111 376.772 582.599 375.956C581.111 375.116 579.947 373.964 579.107 372.5C578.267 371.036 577.847 369.38 577.847 367.532C577.847 365.684 578.243 364.028 579.035 362.564C579.851 361.1 580.955 359.96 582.347 359.144C583.763 358.328 585.347 357.92 587.099 357.92C588.851 357.92 590.423 358.328 591.815 359.144C593.207 359.96 594.299 361.1 595.091 362.564C595.883 364.004 596.279 365.66 596.279 367.532L596.243 368.324ZM587.099 360.116C585.275 360.116 583.739 360.704 582.491 361.88C581.267 363.032 580.571 364.544 580.403 366.416H593.831C593.663 364.544 592.955 363.032 591.707 361.88C590.483 360.704 588.947 360.116 587.099 360.116ZM609.33 377.18C607.458 377.18 605.778 376.772 604.29 375.956C602.826 375.14 601.674 374 600.834 372.536C599.994 371.048 599.574 369.38 599.574 367.532C599.574 365.684 599.994 364.028 600.834 362.564C601.674 361.1 602.826 359.96 604.29 359.144C605.778 358.328 607.458 357.92 609.33 357.92C610.962 357.92 612.414 358.244 613.686 358.892C614.982 359.516 616.002 360.44 616.746 361.664L614.838 362.96C614.214 362.024 613.422 361.328 612.462 360.872C611.502 360.392 610.458 360.152 609.33 360.152C607.962 360.152 606.726 360.464 605.622 361.088C604.542 361.688 603.69 362.552 603.066 363.68C602.466 364.808 602.166 366.092 602.166 367.532C602.166 368.996 602.466 370.292 603.066 371.42C603.69 372.524 604.542 373.388 605.622 374.012C606.726 374.612 607.962 374.912 609.33 374.912C610.458 374.912 611.502 374.684 612.462 374.228C613.422 373.772 614.214 373.076 614.838 372.14L616.746 373.436C616.002 374.66 614.982 375.596 613.686 376.244C612.39 376.868 610.938 377.18 609.33 377.18ZM631.95 375.848C631.47 376.28 630.87 376.616 630.15 376.856C629.454 377.072 628.722 377.18 627.954 377.18C626.178 377.18 624.81 376.7 623.85 375.74C622.89 374.78 622.41 373.424 622.41 371.672V360.224H619.026V358.064H622.41V353.924H624.966V358.064H630.726V360.224H624.966V371.528C624.966 372.656 625.242 373.52 625.794 374.12C626.37 374.696 627.186 374.984 628.242 374.984C628.77 374.984 629.274 374.9 629.754 374.732C630.258 374.564 630.69 374.324 631.05 374.012L631.95 375.848ZM639.051 361.772C639.651 360.5 640.539 359.54 641.715 358.892C642.915 358.244 644.391 357.92 646.143 357.92V360.404L645.531 360.368C643.539 360.368 641.979 360.98 640.851 362.204C639.723 363.428 639.159 365.144 639.159 367.352V377H636.603V358.064H639.051V361.772ZM658.335 377.18C656.511 377.18 654.867 376.772 653.403 375.956C651.939 375.116 650.787 373.964 649.947 372.5C649.107 371.036 648.687 369.38 648.687 367.532C648.687 365.684 649.107 364.028 649.947 362.564C650.787 361.1 651.939 359.96 653.403 359.144C654.867 358.328 656.511 357.92 658.335 357.92C660.159 357.92 661.803 358.328 663.267 359.144C664.731 359.96 665.871 361.1 666.687 362.564C667.527 364.028 667.947 365.684 667.947 367.532C667.947 369.38 667.527 371.036 666.687 372.5C665.871 373.964 664.731 375.116 663.267 375.956C661.803 376.772 660.159 377.18 658.335 377.18ZM658.335 374.912C659.679 374.912 660.879 374.612 661.935 374.012C663.015 373.388 663.855 372.512 664.455 371.384C665.055 370.256 665.355 368.972 665.355 367.532C665.355 366.092 665.055 364.808 664.455 363.68C663.855 362.552 663.015 361.688 661.935 361.088C660.879 360.464 659.679 360.152 658.335 360.152C656.991 360.152 655.779 360.464 654.699 361.088C653.643 361.688 652.803 362.552 652.179 363.68C651.579 364.808 651.279 366.092 651.279 367.532C651.279 368.972 651.579 370.256 652.179 371.384C652.803 372.512 653.643 373.388 654.699 374.012C655.779 374.612 656.991 374.912 658.335 374.912ZM682.814 357.92C685.19 357.92 687.074 358.616 688.466 360.008C689.882 361.376 690.59 363.38 690.59 366.02V377H688.034V366.272C688.034 364.304 687.542 362.804 686.558 361.772C685.574 360.74 684.17 360.224 682.346 360.224C680.306 360.224 678.686 360.836 677.486 362.06C676.31 363.26 675.722 364.928 675.722 367.064V377H673.166V358.064H675.614V361.556C676.31 360.404 677.27 359.516 678.494 358.892C679.742 358.244 681.182 357.92 682.814 357.92ZM697.529 358.064H700.085V377H697.529V358.064ZM698.825 353.924C698.297 353.924 697.853 353.744 697.493 353.384C697.133 353.024 696.953 352.592 696.953 352.088C696.953 351.608 697.133 351.188 697.493 350.828C697.853 350.468 698.297 350.288 698.825 350.288C699.353 350.288 699.797 350.468 700.157 350.828C700.517 351.164 700.697 351.572 700.697 352.052C700.697 352.58 700.517 353.024 700.157 353.384C699.797 353.744 699.353 353.924 698.825 353.924ZM715.045 377.18C713.173 377.18 711.493 376.772 710.005 375.956C708.541 375.14 707.389 374 706.549 372.536C705.709 371.048 705.289 369.38 705.289 367.532C705.289 365.684 705.709 364.028 706.549 362.564C707.389 361.1 708.541 359.96 710.005 359.144C711.493 358.328 713.173 357.92 715.045 357.92C716.677 357.92 718.129 358.244 719.401 358.892C720.697 359.516 721.717 360.44 722.461 361.664L720.553 362.96C719.929 362.024 719.137 361.328 718.177 360.872C717.217 360.392 716.173 360.152 715.045 360.152C713.677 360.152 712.441 360.464 711.337 361.088C710.257 361.688 709.405 362.552 708.781 363.68C708.181 364.808 707.881 366.092 707.881 367.532C707.881 368.996 708.181 370.292 708.781 371.42C709.405 372.524 710.257 373.388 711.337 374.012C712.441 374.612 713.677 374.912 715.045 374.912C716.173 374.912 717.217 374.684 718.177 374.228C719.137 373.772 719.929 373.076 720.553 372.14L722.461 373.436C721.717 374.66 720.697 375.596 719.401 376.244C718.105 376.868 716.653 377.18 715.045 377.18ZM732.558 377.18C731.022 377.18 729.546 376.964 728.13 376.532C726.738 376.076 725.646 375.512 724.854 374.84L726.006 372.824C726.798 373.448 727.794 373.964 728.994 374.372C730.194 374.756 731.442 374.948 732.738 374.948C734.466 374.948 735.738 374.684 736.554 374.156C737.394 373.604 737.814 372.836 737.814 371.852C737.814 371.156 737.586 370.616 737.13 370.232C736.674 369.824 736.098 369.524 735.402 369.332C734.706 369.116 733.782 368.912 732.63 368.72C731.094 368.432 729.858 368.144 728.922 367.856C727.986 367.544 727.182 367.028 726.51 366.308C725.862 365.588 725.538 364.592 725.538 363.32C725.538 361.736 726.198 360.44 727.518 359.432C728.838 358.424 730.674 357.92 733.026 357.92C734.25 357.92 735.474 358.088 736.698 358.424C737.922 358.736 738.93 359.156 739.722 359.684L738.606 361.736C737.046 360.656 735.186 360.116 733.026 360.116C731.394 360.116 730.158 360.404 729.318 360.98C728.502 361.556 728.094 362.312 728.094 363.248C728.094 363.968 728.322 364.544 728.778 364.976C729.258 365.408 729.846 365.732 730.542 365.948C731.238 366.14 732.198 366.344 733.422 366.56C734.934 366.848 736.146 367.136 737.058 367.424C737.97 367.712 738.75 368.204 739.398 368.9C740.046 369.596 740.37 370.556 740.37 371.78C740.37 373.436 739.674 374.756 738.282 375.74C736.914 376.7 735.006 377.18 732.558 377.18Z" fill="#5F8BFF"/>
<path d="M516.462 35.216C513.966 35.216 511.71 34.664 509.694 33.56C507.702 32.456 506.13 30.932 504.978 28.988C503.85 27.02 503.286 24.824 503.286 22.4C503.286 19.976 503.85 17.792 504.978 15.848C506.13 13.88 507.714 12.344 509.73 11.24C511.746 10.136 514.002 9.584 516.498 9.584C518.37 9.584 520.098 9.896 521.682 10.52C523.266 11.144 524.61 12.056 525.714 13.256L524.022 14.948C522.054 12.956 519.57 11.96 516.57 11.96C514.578 11.96 512.766 12.416 511.134 13.328C509.502 14.24 508.218 15.488 507.282 17.072C506.37 18.656 505.914 20.432 505.914 22.4C505.914 24.368 506.37 26.144 507.282 27.728C508.218 29.312 509.502 30.56 511.134 31.472C512.766 32.384 514.578 32.84 516.57 32.84C519.594 32.84 522.078 31.832 524.022 29.816L525.714 31.508C524.61 32.708 523.254 33.632 521.646 34.28C520.062 34.904 518.334 35.216 516.462 35.216ZM537.196 15.92C539.668 15.92 541.564 16.544 542.884 17.792C544.204 19.016 544.864 20.84 544.864 23.264V35H542.416V32.048C541.84 33.032 540.988 33.8 539.86 34.352C538.756 34.904 537.436 35.18 535.9 35.18C533.788 35.18 532.108 34.676 530.86 33.668C529.612 32.66 528.988 31.328 528.988 29.672C528.988 28.064 529.564 26.768 530.716 25.784C531.892 24.8 533.752 24.308 536.296 24.308H542.308V23.156C542.308 21.524 541.852 20.288 540.94 19.448C540.028 18.584 538.696 18.152 536.944 18.152C535.744 18.152 534.592 18.356 533.488 18.764C532.384 19.148 531.436 19.688 530.644 20.384L529.492 18.476C530.452 17.66 531.604 17.036 532.948 16.604C534.292 16.148 535.708 15.92 537.196 15.92ZM536.296 33.164C537.736 33.164 538.972 32.84 540.004 32.192C541.036 31.52 541.804 30.56 542.308 29.312V26.216H536.368C533.128 26.216 531.508 27.344 531.508 29.6C531.508 30.704 531.928 31.58 532.768 32.228C533.608 32.852 534.784 33.164 536.296 33.164ZM575.422 15.92C577.798 15.92 579.658 16.604 581.002 17.972C582.37 19.34 583.054 21.356 583.054 24.02V35H580.498V24.272C580.498 22.304 580.018 20.804 579.058 19.772C578.122 18.74 576.79 18.224 575.062 18.224C573.094 18.224 571.546 18.836 570.418 20.06C569.29 21.26 568.726 22.928 568.726 25.064V35H566.17V24.272C566.17 22.304 565.69 20.804 564.73 19.772C563.794 18.74 562.45 18.224 560.698 18.224C558.754 18.224 557.206 18.836 556.054 20.06C554.926 21.26 554.362 22.928 554.362 25.064V35H551.806V16.064H554.254V19.52C554.926 18.368 555.862 17.48 557.062 16.856C558.262 16.232 559.642 15.92 561.202 15.92C562.786 15.92 564.154 16.256 565.306 16.928C566.482 17.6 567.358 18.596 567.934 19.916C568.63 18.668 569.626 17.696 570.922 17C572.242 16.28 573.742 15.92 575.422 15.92ZM606.544 26.324H590.704C590.848 28.292 591.604 29.888 592.972 31.112C594.34 32.312 596.068 32.912 598.156 32.912C599.332 32.912 600.412 32.708 601.396 32.3C602.38 31.868 603.232 31.244 603.952 30.428L605.392 32.084C604.552 33.092 603.496 33.86 602.224 34.388C600.976 34.916 599.596 35.18 598.084 35.18C596.14 35.18 594.412 34.772 592.9 33.956C591.412 33.116 590.248 31.964 589.408 30.5C588.568 29.036 588.148 27.38 588.148 25.532C588.148 23.684 588.544 22.028 589.336 20.564C590.152 19.1 591.256 17.96 592.648 17.144C594.064 16.328 595.648 15.92 597.4 15.92C599.152 15.92 600.724 16.328 602.116 17.144C603.508 17.96 604.6 19.1 605.392 20.564C606.184 22.004 606.58 23.66 606.58 25.532L606.544 26.324ZM597.4 18.116C595.576 18.116 594.04 18.704 592.792 19.88C591.568 21.032 590.872 22.544 590.704 24.416H604.132C603.964 22.544 603.256 21.032 602.008 19.88C600.784 18.704 599.248 18.116 597.4 18.116ZM614.231 19.772C614.831 18.5 615.719 17.54 616.895 16.892C618.095 16.244 619.571 15.92 621.323 15.92V18.404L620.711 18.368C618.719 18.368 617.159 18.98 616.031 20.204C614.903 21.428 614.339 23.144 614.339 25.352V35H611.783V16.064H614.231V19.772ZM632.54 15.92C635.012 15.92 636.908 16.544 638.228 17.792C639.548 19.016 640.208 20.84 640.208 23.264V35H637.76V32.048C637.184 33.032 636.332 33.8 635.204 34.352C634.1 34.904 632.78 35.18 631.244 35.18C629.132 35.18 627.452 34.676 626.204 33.668C624.956 32.66 624.332 31.328 624.332 29.672C624.332 28.064 624.908 26.768 626.06 25.784C627.236 24.8 629.096 24.308 631.64 24.308H637.652V23.156C637.652 21.524 637.196 20.288 636.284 19.448C635.372 18.584 634.04 18.152 632.288 18.152C631.088 18.152 629.936 18.356 628.832 18.764C627.728 19.148 626.78 19.688 625.988 20.384L624.836 18.476C625.796 17.66 626.948 17.036 628.292 16.604C629.636 16.148 631.052 15.92 632.54 15.92ZM631.64 33.164C633.08 33.164 634.316 32.84 635.348 32.192C636.38 31.52 637.148 30.56 637.652 29.312V26.216H631.712C628.472 26.216 626.852 27.344 626.852 29.6C626.852 30.704 627.272 31.58 628.112 32.228C628.952 32.852 630.128 33.164 631.64 33.164Z" fill="#9BF47B"/>
<path d="M572 44V84" stroke="#9BF47B"/>
<path d="M942.016 97.8C945.232 97.8 947.752 98.568 949.576 100.104C951.4 101.64 952.312 103.752 952.312 106.44C952.312 109.128 951.4 111.24 949.576 112.776C947.752 114.288 945.232 115.044 942.016 115.044H935.248V123H932.584V97.8H942.016ZM941.944 112.704C944.44 112.704 946.348 112.164 947.668 111.084C948.988 109.98 949.648 108.432 949.648 106.44C949.648 104.4 948.988 102.84 947.668 101.76C946.348 100.656 944.44 100.104 941.944 100.104H935.248V112.704H941.944ZM959.489 107.772C960.089 106.5 960.977 105.54 962.153 104.892C963.353 104.244 964.829 103.92 966.581 103.92V106.404L965.969 106.368C963.977 106.368 962.417 106.98 961.289 108.204C960.161 109.428 959.597 111.144 959.597 113.352V123H957.041V104.064H959.489V107.772ZM978.773 123.18C976.949 123.18 975.305 122.772 973.841 121.956C972.377 121.116 971.225 119.964 970.385 118.5C969.545 117.036 969.125 115.38 969.125 113.532C969.125 111.684 969.545 110.028 970.385 108.564C971.225 107.1 972.377 105.96 973.841 105.144C975.305 104.328 976.949 103.92 978.773 103.92C980.597 103.92 982.241 104.328 983.705 105.144C985.169 105.96 986.309 107.1 987.125 108.564C987.965 110.028 988.385 111.684 988.385 113.532C988.385 115.38 987.965 117.036 987.125 118.5C986.309 119.964 985.169 121.116 983.705 121.956C982.241 122.772 980.597 123.18 978.773 123.18ZM978.773 120.912C980.117 120.912 981.317 120.612 982.373 120.012C983.453 119.388 984.293 118.512 984.893 117.384C985.493 116.256 985.793 114.972 985.793 113.532C985.793 112.092 985.493 110.808 984.893 109.68C984.293 108.552 983.453 107.688 982.373 107.088C981.317 106.464 980.117 106.152 978.773 106.152C977.429 106.152 976.217 106.464 975.137 107.088C974.081 107.688 973.241 108.552 972.617 109.68C972.017 110.808 971.717 112.092 971.717 113.532C971.717 114.972 972.017 116.256 972.617 117.384C973.241 118.512 974.081 119.388 975.137 120.012C976.217 120.612 977.429 120.912 978.773 120.912ZM1003.36 103.92C1005.14 103.92 1006.74 104.328 1008.18 105.144C1009.62 105.936 1010.75 107.064 1011.57 108.528C1012.38 109.992 1012.79 111.66 1012.79 113.532C1012.79 115.428 1012.38 117.108 1011.57 118.572C1010.75 120.036 1009.62 121.176 1008.18 121.992C1006.77 122.784 1005.16 123.18 1003.36 123.18C1001.82 123.18 1000.43 122.868 999.183 122.244C997.959 121.596 996.951 120.66 996.159 119.436V129.984H993.603V104.064H996.051V107.808C996.819 106.56 997.827 105.6 999.075 104.928C1000.35 104.256 1001.78 103.92 1003.36 103.92ZM1003.18 120.912C1004.5 120.912 1005.7 120.612 1006.78 120.012C1007.86 119.388 1008.7 118.512 1009.3 117.384C1009.92 116.256 1010.24 114.972 1010.24 113.532C1010.24 112.092 1009.92 110.82 1009.3 109.716C1008.7 108.588 1007.86 107.712 1006.78 107.088C1005.7 106.464 1004.5 106.152 1003.18 106.152C1001.84 106.152 1000.62 106.464 999.543 107.088C998.487 107.712 997.647 108.588 997.023 109.716C996.423 110.82 996.123 112.092 996.123 113.532C996.123 114.972 996.423 116.256 997.023 117.384C997.647 118.512 998.487 119.388 999.543 120.012C1000.62 120.612 1001.84 120.912 1003.18 120.912ZM1034.49 114.324H1018.65C1018.79 116.292 1019.55 117.888 1020.92 119.112C1022.29 120.312 1024.01 120.912 1026.1 120.912C1027.28 120.912 1028.36 120.708 1029.34 120.3C1030.33 119.868 1031.18 119.244 1031.9 118.428L1033.34 120.084C1032.5 121.092 1031.44 121.86 1030.17 122.388C1028.92 122.916 1027.54 123.18 1026.03 123.18C1024.09 123.18 1022.36 122.772 1020.85 121.956C1019.36 121.116 1018.19 119.964 1017.35 118.5C1016.51 117.036 1016.09 115.38 1016.09 113.532C1016.09 111.684 1016.49 110.028 1017.28 108.564C1018.1 107.1 1019.2 105.96 1020.59 105.144C1022.01 104.328 1023.59 103.92 1025.35 103.92C1027.1 103.92 1028.67 104.328 1030.06 105.144C1031.45 105.96 1032.55 107.1 1033.34 108.564C1034.13 110.004 1034.53 111.66 1034.53 113.532L1034.49 114.324ZM1025.35 106.116C1023.52 106.116 1021.99 106.704 1020.74 107.88C1019.51 109.032 1018.82 110.544 1018.65 112.416H1032.08C1031.91 110.544 1031.2 109.032 1029.95 107.88C1028.73 106.704 1027.19 106.116 1025.35 106.116ZM1039.73 96.288H1042.28V123H1039.73V96.288ZM1049.4 96.288H1051.95V123H1049.4V96.288ZM1066.8 123.18C1064.98 123.18 1063.34 122.772 1061.87 121.956C1060.41 121.116 1059.26 119.964 1058.42 118.5C1057.58 117.036 1057.16 115.38 1057.16 113.532C1057.16 111.684 1057.58 110.028 1058.42 108.564C1059.26 107.1 1060.41 105.96 1061.87 105.144C1063.34 104.328 1064.98 103.92 1066.8 103.92C1068.63 103.92 1070.27 104.328 1071.74 105.144C1073.2 105.96 1074.34 107.1 1075.16 108.564C1076 110.028 1076.42 111.684 1076.42 113.532C1076.42 115.38 1076 117.036 1075.16 118.5C1074.34 119.964 1073.2 121.116 1071.74 121.956C1070.27 122.772 1068.63 123.18 1066.8 123.18ZM1066.8 120.912C1068.15 120.912 1069.35 120.612 1070.4 120.012C1071.48 119.388 1072.32 118.512 1072.92 117.384C1073.52 116.256 1073.82 114.972 1073.82 113.532C1073.82 112.092 1073.52 110.808 1072.92 109.68C1072.32 108.552 1071.48 107.688 1070.4 107.088C1069.35 106.464 1068.15 106.152 1066.8 106.152C1065.46 106.152 1064.25 106.464 1063.17 107.088C1062.11 107.688 1061.27 108.552 1060.65 109.68C1060.05 110.808 1059.75 112.092 1059.75 113.532C1059.75 114.972 1060.05 116.256 1060.65 117.384C1061.27 118.512 1062.11 119.388 1063.17 120.012C1064.25 120.612 1065.46 120.912 1066.8 120.912ZM1084.08 107.772C1084.68 106.5 1085.57 105.54 1086.75 104.892C1087.95 104.244 1089.42 103.92 1091.17 103.92V106.404L1090.56 106.368C1088.57 106.368 1087.01 106.98 1085.88 108.204C1084.75 109.428 1084.19 111.144 1084.19 113.352V123H1081.63V104.064H1084.08V107.772Z" fill="#FF5454"/>
<path d="M65.5 343.5L353.5 228.5" stroke="#FFD600"/>
<path d="M827 243L106 343.5" stroke="#FFD600"/>
<path d="M571.5 224.5L584.5 335.5" stroke="#5F8BFF"/>
<path d="M748.5 127L905.5 115M480.5 127L905.5 99.5M609 296.5L974.5 133.5" stroke="#FF5454"/>
</svg>
