<svg width="1308" height="298" viewBox="0 0 1308 298" fill="none" xmlns="http://www.w3.org/2000/svg">
<path d="M615.877 267.275C610.012 246.391 586.577 236.743 567.001 232.687C453.61 209.192 245.074 272.496 95.8411 296.643C82.9079 298.736 68.2131 291.064 55.4373 288.159C33.5918 283.193 2 267.275 2 267.275C2 267.275 20.886 236.166 40.4488 226.161C59.8745 216.225 81.5042 218.981 95.8411 218.982C107.065 218.982 113.88 220.617 124.515 217.024C232.693 180.477 543.541 77.3635 576.777 66.2695C596.714 59.6143 613.863 1.92695 653.022 1.00783C688.213 0.181855 711.21 64.9897 733.83 72.1431C770.975 83.8897 1164.59 208.539 1193.26 217.677C1201.75 220.381 1210.86 218.983 1216.07 217.677C1221.28 216.37 1256.39 215.278 1276.02 228.771C1292.73 240.256 1306 271.191 1306 271.191C1306 271.191 1275.09 286.558 1253.87 292.075C1245.32 294.297 1240.53 297.079 1231.71 296.643C1139.17 292.075 860.907 205.929 722.752 232.687C698.145 237.453 671.921 250.307 668.663 267.275M615.877 267.275C615.877 260.096 621.09 246.392 641.292 246.392C661.494 246.392 668.663 260.749 668.663 267.275M615.877 267.275C615.877 267.275 621.051 277.064 642.596 277.064C666.056 277.064 668.663 267.275 668.663 267.275" stroke="#767676" stroke-width="2"/>
</svg>
