<svg width="471" height="363" viewBox="0 0 471 363" fill="none" xmlns="http://www.w3.org/2000/svg">
<path d="M211.418 117.677V188.641M211.418 283.749V188.641M211.418 188.641L108.653 93.6057M211.418 188.641L137.289 110.095M211.418 188.641L175.715 115.395M211.418 188.641L245.28 115.395M211.418 188.641L272.296 110.095M211.418 188.641L304.465 92.207" stroke="white" stroke-width="3"/>
<path d="M108.506 92.6138C112.539 61.8219 137.934 0.624418 212.307 1.00174C212.433 1.00174 212.56 1.00258 212.686 1.00427C286.741 1.62026 304.43 72.4478 304.43 90.6373C306.798 97.3752 296.418 105.034 272.414 110.783C254.152 114.879 231.997 116.803 212.307 117.162C189.756 117.162 162.223 115.964 137.96 110.199C115.954 104.971 108.506 97.1955 108.506 92.6138Z" fill="white"/>
<path d="M212.307 1.00174C137.934 0.624418 112.539 61.8219 108.506 92.6138C108.506 97.1955 115.954 104.971 137.96 110.199M212.307 1.00174C286.68 1.37906 304.43 72.4169 304.43 90.6373C306.798 97.3752 296.418 105.034 272.414 110.783M212.307 1.00174C163.78 1.00174 142.663 73.658 137.96 110.199M212.307 1.00174C249.494 1.00174 268.143 74.2419 272.414 110.783M212.307 1.00174V117.162M137.96 110.199C162.223 115.964 189.756 117.162 212.307 117.162M272.414 110.783C254.152 114.879 231.997 116.803 212.307 117.162" stroke="#DADADA"/>
<path d="M48.1699 351.918H470.932V331.675C376.436 305.1 161.888 258.842 59.6536 286.402C-42.5807 313.963 9.40016 341.563 48.1699 351.918Z" fill="#DADADA"/>
<path d="M294.194 349.118C304.796 329.142 326.055 301.399 351.651 292.362C362.225 288.629 410.155 285.54 425.78 287.468C427.409 287.669 428.686 287.925 429.534 288.24L400.978 349.118H416.652L394.936 362H288.417L95.1085 349.118H294.194Z" fill="#DADADA"/>
<path d="M288.417 362C294.65 343.842 319.791 303.61 351.651 292.362C362.225 288.629 410.155 285.54 425.78 287.468C427.409 287.669 428.686 287.925 429.534 288.24L397.698 356.111L394.936 362M288.417 362L95.1085 349.118H416.652L394.936 362M288.417 362H394.936" stroke="black"/>
</svg>
